# xmcd CD database file
#
# Track frame offsets:
#	150
#	10212
#	18362
#	32675
#	43592
#	51550
#	61412
#	71925
#	85180
#	93637
#	108425
#	116100
#	126925
#	137937
#
# Disc length: 1932 seconds
#
# Revision: 0
# Processed by: cddbd v1.5.2PL0 Copyright (c) Steve Scherf et al.
# Submitted via: CDex 1.70beta2
#
DISCID=cd078a0e
DTITLE=Die Sp‰theimkehrer - Same
DYEAR=1992
DGENRE=Jazz
TTITLE0=Das Singende Ei
TTITLE1=Alles Weg
TTITLE2=Mary Ann
TTITLE3=Liebe Und Hiebe
TTITLE4=Ich Bin Ein Mann
TTITLE5=Nur Mit Schlips
TTITLE6=Sp‰theimkehrer
TTITLE7=Haste Ma Ne Mark, Ey
TTITLE8=Laﬂ Ihn Geh¥n
TTITLE9=Bist Du Einsam Heut Nacht
TTITLE10=Mr. Batton Aus Manhatton
TTITLE11=Schweinebilly
TTITLE12=Bei Der Firma Rock¥n¥ Roll
TTITLE13=Das Finale
EXTD=YEAR: 1992
EXTT0=
EXTT1=
EXTT2=
EXTT3=
EXTT4=
EXTT5=
EXTT6=
EXTT7=
EXTT8=
EXTT9=
EXTT10=
EXTT11=
EXTT12=
EXTT13=
PLAYORDER=
